<?xml version="1.0"?>
<svg xmlns="http://www.w3.org/2000/svg" clip-rule="evenodd" fill-rule="evenodd" height="512px" stroke-linejoin="round" stroke-miterlimit="2" viewBox="0 0 24 24" width="512px"><g><g transform="translate(-62.744 -90.903)"><path d="m68.497 104.467c-2.2-.889-3.753-3.047-3.753-5.564 0-3.312 2.688-6 6-6 2.201 0 4.127 1.188 5.171 2.957l2.874-.479c.247-1.407 1.477-2.478 2.955-2.478 1.655 0 3 1.344 3 3s-1.345 3-3 3c-1.13 0-2.114-.626-2.626-1.549l-2.482.414c.071.367.108.747.108 1.135 0 .45-.05.888-.144 1.31l3.061 1.531.013-.012c.092-.087.188-.169.29-.244.204-.151.427-.276.663-.37.294-.118.608-.189.924-.209.335-.021.673.013.996.103.264.073.518.183.752.325.318.194.6.447.827.743.206.269.367.573.472.896.117.36.164.742.14 1.119-.026.396-.13.786-.306 1.141-.177.355-.425.675-.726.935-.283.245-.612.437-.966.562-.325.115-.671.172-1.016.17-.32-.002-.639-.055-.942-.158-.327-.111-.634-.279-.904-.494-.292-.232-.54-.518-.728-.84-.138-.237-.243-.493-.312-.759-.093-.362-.116-.741-.073-1.112l.001-.008-2.926-1.463c-.424.68-.979 1.269-1.631 1.731l2.086 3.136.011-.001c.377-.054.762-.039 1.133.049.267.064.526.164.766.299.32.179.607.417.842.698.221.265.396.567.514.891.108.293.169.603.18.915.014.353-.034.707-.143 1.043-.117.357-.301.691-.54.981-.252.306-.566.561-.917.747-.349.184-.735.298-1.129.333-.377.033-.761-.004-1.125-.112-.262-.079-.513-.193-.745-.339-.319-.203-.6-.466-.823-.772-.197-.269-.349-.572-.446-.891-.097-.32-.14-.656-.127-.99.012-.318.075-.634.186-.932.089-.239.209-.465.355-.674.073-.103.152-.201.236-.295l.001-.001-2.136-3.211c-.522.149-1.074.229-1.644.229-.096 0-.192-.002-.287-.007l-.814 2.686c.672.55 1.101 1.386 1.101 2.321 0 1.656-1.345 3-3 3-1.656 0-3-1.344-3-3s1.344-3 3-3h.015zm-.753 4.436c.552 0 1 .448 1 1s-.448 1-1 1-1-.448-1-1 .448-1 1-1zm9 0c.552 0 1 .448 1 1s-.448 1-1 1-1-.448-1-1 .448-1 1-1zm5-6c.552 0 1 .448 1 1s-.448 1-1 1-1-.448-1-1 .448-1 1-1zm-11-8c2.207 0 4 1.792 4 4 0 2.207-1.793 4-4 4-2.208 0-4-1.793-4-4 0-2.208 1.792-4 4-4zm11 0c.552 0 1 .448 1 1s-.448 1-1 1-1-.448-1-1 .448-1 1-1z" data-original="#000000" class="active-path" data-old_color="#000000" fill="#FFFFFF"/></g></g> </svg>
