<svg id="color" enable-background="new 0 0 24 24" height="512" viewBox="0 0 24 24" width="512" xmlns="http://www.w3.org/2000/svg"><path d="m21.25 24h-16.75c-1.517 0-2.75-1.233-2.75-2.75v-18.5c0-1.517 1.233-2.75 2.75-2.75h16.75c1.517 0 2.75 1.233 2.75 2.75v18.5c0 1.517-1.233 2.75-2.75 2.75z" fill="#03a9f4"/><path d="m13 0h-8.5c-1.517 0-2.75 1.233-2.75 2.75v18.5c0 1.517 1.233 2.75 2.75 2.75h8.5z" fill="#0393d4"/><path d="m4.25 9h-3.5c-.414 0-.75-.336-.75-.75v-2.5c0-.414.336-.75.75-.75h3.5c.414 0 .75.336.75.75v2.5c0 .414-.336.75-.75.75z" fill="#1976d2"/><path d="m4.25 19h-3.5c-.414 0-.75-.336-.75-.75v-2.5c0-.414.336-.75.75-.75h3.5c.414 0 .75.336.75.75v2.5c0 .414-.336.75-.75.75z" fill="#1976d2"/><path d="m5 17h-5v1.25c0 .414.336.75.75.75h3.5c.414 0 .75-.336.75-.75z" fill="#1667b7"/><path d="m5 7h-5v1.25c0 .414.336.75.75.75h3.5c.414 0 .75-.336.75-.75z" fill="#1667b7"/><path d="m13 18c-1.605 0-3.111-.624-4.243-1.756-1.133-1.133-1.757-2.641-1.757-4.244 0-1.604.624-3.111 1.757-4.244 1.132-1.132 2.639-1.756 4.243-1.756s3.111.623 4.243 1.756c1.133 1.133 1.757 2.64 1.757 4.244 0 1.603-.624 3.111-1.757 4.244-1.132 1.132-2.639 1.756-4.243 1.756z" fill="#607d8b"/><path d="m13 6c-1.605 0-3.111.624-4.243 1.756-1.133 1.133-1.757 2.64-1.757 4.244 0 1.603.624 3.111 1.757 4.244 1.132 1.132 2.639 1.756 4.243 1.756v-2.978c-.792 0-1.566-.322-2.123-.883-.566-.57-.877-1.329-.877-2.138 0-.81.311-1.568.877-2.138.557-.561 1.34-.842 2.123-.842z" fill="#546d79"/><path d="m13 10.637c-.345 0-.625-.28-.625-.625v-2.387c0-.345.28-.625.625-.625s.625.28.625.625v2.387c0 .344-.28.625-.625.625z" fill="#455a64"/><path d="m13 17c-.345 0-.625-.28-.625-.625v-2.387c0-.345.28-.625.625-.625s.625.28.625.625v2.387c0 .345-.28.625-.625.625z" fill="#455a64"/><path d="m13 7c-.345 0-.625.28-.625.625v2.387c0 .345.28.625.625.625z" fill="#3c4e57"/><path d="m13 13.363c-.345 0-.625.28-.625.625v2.387c0 .345.28.625.625.625z" fill="#3c4e57"/><path d="m11.011 12.625h-2.386c-.345 0-.625-.28-.625-.625s.28-.625.625-.625h2.386c.346 0 .625.28.625.625s-.28.625-.625.625z" fill="#455a64"/><path d="m17.375 12.625h-2.386c-.346 0-.625-.28-.625-.625s.279-.625.625-.625h2.386c.345 0 .625.28.625.625s-.28.625-.625.625z" fill="#455a64"/><path d="m11.636 12h-3.636c0 .345.28.625.625.625h2.386c.345 0 .625-.28.625-.625z" fill="#3c4e57"/><path d="m18 12h-3.636c0 .345.279.625.625.625h2.386c.345 0 .625-.28.625-.625z" fill="#3c4e57"/><path d="m12.036 11.036c-.244.244-.64.244-.884 0l-1.688-1.688c-.244-.244-.244-.64 0-.884s.64-.244.884 0l1.688 1.688c.244.244.244.64 0 .884z" fill="#455a64"/><path d="m16.536 15.536c-.244.244-.64.244-.884 0l-1.688-1.688c-.244-.244-.244-.64 0-.884s.64-.244.884 0l1.688 1.688c.244.244.243.64 0 .884z" fill="#455a64"/><path d="m9.464 8.464c-.244.244-.244.64 0 .884l1.688 1.688c.244.244.64.244.884 0z" fill="#3c4e57"/><path d="m13.964 12.964c-.244.244-.244.64 0 .884l1.688 1.688c.244.244.64.244.884 0z" fill="#3c4e57"/><path d="m12.035 13.849-1.687 1.687c-.244.244-.64.244-.884 0s-.244-.64 0-.884l1.687-1.687c.244-.244.64-.244.884 0s.245.639 0 .884z" fill="#455a64"/><path d="m16.536 9.348-1.687 1.687c-.244.244-.64.244-.884 0s-.244-.639 0-.884l1.687-1.687c.244-.244.64-.244.884 0 .244.245.243.641 0 .884z" fill="#455a64"/><path d="m12.035 12.965-2.571 2.571c.244.244.64.244.884 0l1.687-1.687c.245-.245.244-.64 0-.884z" fill="#3c4e57"/><path d="m16.536 8.464-2.571 2.571c.244.244.639.244.884 0l1.687-1.687c.243-.243.244-.639 0-.884z" fill="#3c4e57"/><path d="m13 15.022c-.792 0-1.566-.322-2.123-.883-.566-.57-.877-1.329-.877-2.138 0-.81.311-1.568.877-2.138 1.113-1.122 3.133-1.122 4.246 0 .566.57.877 1.328.877 2.138 0 .809-.311 1.568-.877 2.138-.557.561-1.331.883-2.123.883z" fill="#eceff1"/><path d="m13 9.021c-.783 0-1.566.281-2.123.842-.566.57-.877 1.328-.877 2.138 0 .809.311 1.568.877 2.138.557.561 1.331.883 2.123.883z" fill="#cdd0d2"/></svg>