<svg id="Layer_1" enable-background="new 0 0 48 48" height="512" viewBox="0 0 48 48" width="512" xmlns="http://www.w3.org/2000/svg"><g id="XMLID_1514_"><path d="m24.006 0c-13.232 0-24 10.767-24 24 0 13.232 10.768 24 24 24s23.988-10.769 23.988-24c0-13.232-10.756-24-23.988-24z" fill="#ed7b72"/><path d="m24.006 7.142c-9.3 0-16.86 7.56-16.86 16.859 0 9.29 7.56 16.86 16.86 16.86 9.29 0 16.85-7.57 16.85-16.86 0-9.3-7.56-16.859-16.85-16.859zm0 31.099c-7.85 0-14.24-6.39-14.24-14.24s6.39-14.24 14.24-14.24 14.23 6.39 14.23 14.24c0 7.851-6.38 14.24-14.23 14.24z" fill="#d56455"/><path id="XMLID_1555_" d="m33.906 20.293-2.493-2.493c-.111-.111-.261-.173-.418-.173h-3.525c-.157 0-.307.062-.418.173l-7.052 7.06c-.111.111-.261.173-.418.173h-1.632c-.157 0-.307-.062-.417-.173l-1.154-1.154c-.111-.111-.173-.261-.173-.417v-1.631c0-.156.062-.307.173-.417l1.154-1.156c.111-.111.261-.173.418-.173h1.632c.157 0 .307.062.418.173l.708.709c.231.231.605.231.835 0l.783-.784c.23-.23.23-.604 0-.835l-1.378-1.379c-.111-.111-.261-.173-.418-.173h-3.525c-.157 0-.307.062-.418.173l-2.494 2.497c-.111.111-.173.261-.173.417v3.528c0 .157.062.307.173.418l2.494 2.493c.111.111.261.173.417.173h3.526c.157 0 .307-.062.418-.173l7.051-7.061c.111-.111.261-.173.418-.173h1.632c.157 0 .307.062.417.173l1.154 1.154c.111.111.173.261.173.417v1.631c0 .156-.062.307-.173.417l-1.154 1.156c-.111.111-.261.173-.418.173h-1.632c-.157 0-.307-.062-.418-.173l-.708-.709c-.231-.231-.605-.231-.836 0l-1.027 1.028c-.111.111-.173.261-.173.418l.001 4.187c0 .326.264.59.59.59h1.109c.326 0 .591-.264.59-.59v-1.871c0-.326.264-.591.59-.591h2.857c.157 0 .307-.062.418-.173l2.494-2.497c.111-.111.173-.261.173-.417v-3.528c.002-.156-.06-.307-.171-.417z" fill="#fff"/><g id="XMLID_1530_" fill="#d56455"><path id="XMLID_1554_" d="m44.781 23.241-.681-1.382-.682 1.382-1.523.221 1.102 1.074-.26 1.518 1.363-.717 1.363.717-.26-1.518 1.103-1.074z"/><path id="XMLID_1553_" d="m2.536 26.054 1.364-.717 1.362.717-.261-1.518 1.103-1.074-1.524-.221-.68-1.382-.682 1.382-1.523.221 1.102 1.074z"/><path id="XMLID_1552_" d="m42.663 18.099-1.414.607 1.343.753.141 1.534 1.131-1.046 1.501.34-.642-1.399.786-1.324-1.529.181-1.016-1.158z"/><path id="XMLID_1551_" d="m6.536 30.691-.645-1.398.787-1.323-1.528.18-1.017-1.157-.301 1.51-1.414.608 1.343.753.141 1.533 1.131-1.045z"/><path id="XMLID_1550_" d="m40.408 13.359-1.208.953 1.492.379.532 1.445.823-1.303 1.538-.06-.983-1.185.418-1.482-1.432.571-1.28-.856z"/><path id="XMLID_1549_" d="m7.786 33.689.418-1.482-1.43.57-1.281-.855.101 1.536-1.208.953 1.49.38.534 1.445.823-1.302 1.539-.061z"/><path id="XMLID_1548_" d="m36.057 10.749 1.539-.02.889 1.258.458-1.471 1.47-.457-1.258-.89.02-1.539-1.233.922-1.459-.495.494 1.458z"/><path id="XMLID_1547_" d="m10.729 37.597.019-1.54-1.232.921-1.459-.495.494 1.459-.92 1.233 1.539-.02.889 1.258.458-1.471 1.47-.457z"/><path id="XMLID_1546_" d="m32.207 8.204 1.482-.418 1.184.985.061-1.538 1.303-.823-1.445-.534-.38-1.492-.953 1.21-1.537-.1.856 1.28z"/><path id="XMLID_1545_" d="m14.312 39.2-.953 1.209-1.537-.101.855 1.281-.57 1.43 1.482-.418 1.184.985.06-1.539 1.304-.822-1.446-.533z"/><path id="XMLID_1544_" d="m29.112 2.418-.609 1.415-1.511.301 1.159 1.016-.181 1.529 1.323-.788 1.399.646-.339-1.503 1.045-1.131-1.534-.142z"/><path id="XMLID_1543_" d="m19.459 42.593-.753-1.343-.608 1.414-1.51.301 1.157 1.016-.18 1.528 1.323-.786 1.398.645-.338-1.503 1.044-1.131z"/><path id="XMLID_1542_" d="m23.462 6.105 1.074-1.103 1.518.262-.717-1.364.717-1.364-1.518.261-1.074-1.103-.222 1.524-1.379.682 1.379.682z"/><path id="XMLID_1541_" d="m24.536 42.998-1.074-1.102-.222 1.523-1.38.681 1.38.682.222 1.524 1.074-1.103 1.518.261-.717-1.364.718-1.363z"/><path id="XMLID_1540_" d="m20.286 2.634-1.398.643-1.323-.786.18 1.529-1.157 1.016 1.51.3.608 1.415.753-1.343 1.533-.141-1.044-1.132z"/><path id="XMLID_1539_" d="m30.692 41.464-1.399.645-1.323-.786.181 1.527-1.159 1.017 1.511.3.609 1.414.752-1.342 1.534-.141-1.045-1.132z"/><path id="XMLID_1538_" d="m14.773 4.414-1.185.984-1.481-.418.57 1.431-.855 1.281 1.537-.101.953 1.21.379-1.493 1.446-.533-1.304-.822z"/><path id="XMLID_1537_" d="m34.873 39.228-1.184.986-1.482-.418.571 1.43-.856 1.28 1.537-.099.952 1.208.38-1.492 1.446-.533-1.303-.823z"/><path id="XMLID_1536_" d="m8.058 11.517 1.458-.495 1.233.921-.019-1.539 1.258-.889-1.471-.458-.458-1.47-.889 1.257-1.539-.02.921 1.234z"/><path id="XMLID_1535_" d="m38.943 37.483-.458-1.47-.888 1.258-1.539-.021.92 1.234-.494 1.459 1.458-.494 1.233.92-.02-1.539 1.258-.889z"/><path id="XMLID_1534_" d="m5.494 16.078 1.281-.855 1.429.57-.418-1.482.986-1.184-1.539-.061-.823-1.302-.534 1.444-1.492.38 1.21.953z"/><path id="XMLID_1533_" d="m42.048 33.166-.822-1.302-.534 1.445-1.492.379 1.209.953-.1 1.537 1.28-.855 1.43.57-.418-1.482.985-1.184z"/><path id="XMLID_1532_" d="m4.134 21.007 1.017-1.158 1.528.181-.787-1.323.645-1.399-1.503.339-1.131-1.045-.142 1.534-1.343.753 1.415.608z"/><path id="XMLID_1531_" d="m45.367 27.713-1.501.339-1.132-1.045-.141 1.534-1.343.752 1.414.608.301 1.51 1.016-1.157 1.528.18-.786-1.322z"/></g><g id="XMLID_1525_"><g id="XMLID_1526_"><g id="XMLID_1527_"><g id="XMLID_1528_"><path id="XMLID_1529_" d="m27.799 8.436 3.629-.806-3.629-.806-.807-3.629-.806 3.629-3.629.806 3.629.806.806 3.63z" fill="#fff"/></g></g></g></g><g id="XMLID_1520_"><g id="XMLID_1521_"><g id="XMLID_1522_"><g id="XMLID_1523_"><path id="XMLID_1524_" d="m37.763 31.805 3.63-.806-3.63-.806-.806-3.63-.806 3.63-3.63.806 3.63.806.806 3.63z" fill="#fff"/></g></g></g></g><g id="XMLID_1515_"><g id="XMLID_1516_"><g id="XMLID_1517_"><g id="XMLID_1518_"><path id="XMLID_1519_" d="m12.628 32.218 3.629-.807-3.629-.805-.806-3.63-.806 3.629-3.63.806 3.629.806.807 3.63z" fill="#fff"/></g></g></g></g></g></svg>