<svg id="Capa_1" enable-background="new 0 0 512 512" height="512" viewBox="0 0 512 512" width="512" xmlns="http://www.w3.org/2000/svg"><g><g><g><path d="m188.333 415h30v63.333h-30z" fill="#bee3ed"/><path d="m293.667 415h30v63.333h-30z" fill="#8fc2d8"/></g></g><g><g><g><path d="m192.06 375.404-.001-.001-4.496-14.309-1.143.359-31.397-77.665 2.349-1.498-8.066-12.645-.001-.001-8.067-12.646-54.925 35.037v132.321l110.243-34.642z" fill="#2a3f7f"/></g><g><path d="m370.762 256.998-8.067 12.646-.001.001-8.066 12.645 2.349 1.498-31.397 77.665-1.143-.359-4.496 14.309-.001.001-4.496 14.31 110.243 34.642v-132.321z" fill="#152453"/></g></g></g><path d="m318.56 423.59-4.48 6.41h-116.16l-4.48-6.41c-42.09-60.24-61.4-134-54.36-207.69 2.74-28.63 9.43-56.5 19.7-82.9h194.44c10.27 26.4 16.96 54.27 19.7 82.9 7.04 73.69-12.27 147.45-54.36 207.69z" fill="#eef9ff"/><path d="m318.56 423.59-4.48 6.41h-58.08v-297h97.22c10.27 26.4 16.96 54.27 19.7 82.9 7.04 73.69-12.27 147.45-54.36 207.69z" fill="#bfe0ef"/><path d="m357.6 145h-203.2c16.25-47.46 43.9-90.67 81.04-125.64l20.56-19.36 20.56 19.36c37.14 34.97 64.79 78.18 81.04 125.64z" fill="#ef74c3"/><path d="m241 483.5h30v28.5h-30z" fill="#bee3ed"/><path d="m256 483.5h15v28.5h-15z" fill="#8fc2d8"/><path d="m241 372.5h30v81.5h-30z" fill="#ef74c3"/><path d="m256 372.5h15v81.5h-15z" fill="#f6159c"/><path d="m357.6 145h-101.6v-145l20.56 19.36c37.14 34.97 64.79 78.18 81.04 125.64z" fill="#f6159c"/><ellipse cx="256" cy="241.52" fill="#2a3f7f" rx="52.17" ry="52.17" transform="matrix(.383 -.924 .924 .383 -65.102 385.608)"/><path d="m308.17 241.52c0 28.77-23.4 52.17-52.17 52.17v-104.34c28.77 0 52.17 23.41 52.17 52.17z" fill="#152453"/></g></svg>