<svg id="Capa_1" enable-background="new 0 0 497 497" height="512" viewBox="0 0 497 497" width="512" xmlns="http://www.w3.org/2000/svg"><g><path d="m418.537 0h-340.073c-43.335 0-78.464 35.129-78.464 78.464v340.073c0 43.334 35.129 78.463 78.464 78.463h340.073c43.334 0 78.463-35.129 78.463-78.463v-340.073c0-43.335-35.129-78.464-78.463-78.464z" fill="#5c586f"/><path d="m108.375 208.102c0-79.667 32.625-152.458 86.475-208.102h-116.386c-43.335 0-78.464 35.129-78.464 78.463v340.074c0 43.334 35.129 78.463 78.464 78.463h237.139c-122.159-49.522-207.228-160.246-207.228-288.898z" fill="#4f4c5f"/><path d="m75 161.75h86.75v86.75h-86.75z" fill="#fbe29f"/><path d="m161.75 161.75h86.75v86.75h-86.75z" fill="#ed9b83"/><path d="m248.5 335.25h86.75v86.75h-86.75z" fill="#fbe29f"/><path d="m248.5 248.5h86.75v86.75h-86.75z" fill="#ed9b83"/><path d="m248.5 161.75h86.75v86.75h-86.75z" fill="#fbe29f"/><path d="m75 248.5h86.75v86.75h-86.75z" fill="#ed9b83"/><g fill="#fbe29f"><path d="m161.75 335.25v86.75h-23.37c-35 0-63.38-28.38-63.38-63.38v-23.37z"/><path d="m161.75 248.5h86.75v86.75h-86.75z"/><path d="m335.25 248.5h86.75v86.75h-86.75z"/></g><path d="m335.25 161.75h86.75v86.75h-86.75z" fill="#ed9b83"/><path d="m422 138.38v23.37h-86.75v-86.75h23.37c35 0 63.38 28.38 63.38 63.38z" fill="#fbe29f"/><path d="m248.5 75h86.75v86.75h-86.75z" fill="#ed9b83"/><path d="m161.75 75h86.75v86.75h-86.75z" fill="#fbe29f"/><path d="m161.75 75v86.75h-86.75v-23.37c0-35 28.38-63.38 63.38-63.38z" fill="#ed9b83"/><path d="m422 335.25v23.37c0 35-28.38 63.38-63.38 63.38h-23.37v-86.75z" fill="#ed9b83"/><path d="m161.75 335.25h86.75v86.75h-86.75z" fill="#ed9b83"/><path d="m161.75 376.01v45.99h38.849c-14.434-14.199-27.452-29.589-38.849-45.99z" fill="#e7886e"/><path d="m137.829 335.25h-62.829v23.37c0 35 28.38 63.38 63.38 63.38h23.37v-45.99c-9.022-12.985-17.03-26.601-23.921-40.76z" fill="#fccb88"/><path d="m111.206 248.5h-36.206v86.75h62.829c-13.208-27.138-22.319-56.267-26.623-86.75z" fill="#e7886e"/><path d="m108.375 208.102c0-15.746 1.281-31.222 3.742-46.352h-37.117v86.75h36.206c-1.868-13.228-2.831-26.711-2.831-40.398z" fill="#fccb88"/><path d="m140.811 75h-2.43c-35 0-63.38 28.38-63.38 63.38v23.37h37.117c4.968-30.553 14.772-59.687 28.693-86.75z" fill="#e7886e"/></g></svg>