<svg id="Capa_1" enable-background="new 0 0 512 512" height="512" viewBox="0 0 512 512" width="512" xmlns="http://www.w3.org/2000/svg" xmlns:xlink="http://www.w3.org/1999/xlink"><linearGradient id="SVGID_1_" gradientUnits="userSpaceOnUse" x1="256" x2="256" y1="496" y2="16"><stop offset="0" stop-color="#a93aff"/><stop offset="1" stop-color="#ff81ff"/></linearGradient><g><g><g><path d="m202.708 227.583-30-15c-7.407-3.703-16.419-.702-20.124 6.708s-.702 16.42 6.708 20.125l30 15c7.419 3.709 16.424.691 20.124-6.708 3.705-7.409.702-16.42-6.708-20.125zm136.584-15-30 15c-7.41 3.705-10.413 12.715-6.708 20.125 3.698 7.397 12.702 10.418 20.124 6.708l30-15c7.41-3.705 10.413-12.715 6.708-20.125-3.704-7.409-12.713-10.412-20.124-6.708zm-42.686 129.024c5.858-5.858 5.858-15.355 0-21.213-5.857-5.858-15.355-5.858-21.213 0l-19.393 19.393-19.394-19.394c-5.857-5.858-15.355-5.858-21.213 0s-5.858 15.355 0 21.213l25.607 25.607v28.345c-9.594 2.579-18.394 7.622-25.606 14.835-5.858 5.858-5.858 15.355 0 21.213 5.857 5.858 15.355 5.858 21.213 0 10.693-10.693 28.094-10.693 38.787 0 5.857 5.857 15.355 5.858 21.213 0s5.858-15.355 0-21.213c-7.213-7.213-16.012-12.256-25.606-14.835v-28.345zm215.394-250.607c0-41.355-33.645-75-75-75-23.952 0-46.199 11.494-60.178 30.242-36.01-19.284-77.154-30.242-120.822-30.242s-84.812 10.958-120.822 30.242c-13.978-18.748-36.226-30.242-60.178-30.242-41.355 0-75 33.645-75 75 0 23.903 11.446 46.11 30.125 60.094-19.212 35.764-30.125 76.587-30.125 119.906v90c0 6.067 3.654 11.537 9.26 13.858 5.604 2.321 12.058 1.039 16.347-3.252l12.838-12.838 22.325 66.975c1.645 4.932 5.725 8.661 10.784 9.855 5.079 1.2 10.392-.332 14.053-3.992l19.393-19.393 15.301 15.3c3.314 38.315 35.54 68.487 74.699 68.487h122c39.159 0 71.385-30.172 74.699-68.486l15.301-15.3 19.394 19.393c3.669 3.67 8.986 5.189 14.053 3.992 5.06-1.194 9.14-4.923 10.784-9.855l22.325-66.975 12.838 12.838c4.29 4.292 10.744 5.573 16.347 3.252 5.605-2.322 9.26-7.792 9.26-13.858v-90c0-43.319-10.913-84.142-30.125-119.906 18.678-13.985 30.124-36.192 30.124-60.095zm-75-45c24.813 0 45 20.187 45 45 0 13.421-6.017 25.946-15.973 34.378-17.263-24.63-38.772-46.094-63.467-63.331 8.433-10 20.987-16.047 34.44-16.047zm-407 45c0-24.813 20.187-45 45-45 13.454 0 26.008 6.047 34.44 16.047-24.695 17.238-46.204 38.702-63.468 63.332-9.955-8.433-15.972-20.958-15.972-34.379zm452 180v53.787l-4.394-4.394c-3.677-3.676-8.995-5.186-14.053-3.992-5.06 1.194-9.14 4.923-10.784 9.855l-22.325 66.975-12.838-12.838c-2.812-2.812-6.627-4.393-10.606-4.393s-7.794 1.581-10.606 4.394l-4.394 4.393v-83.787c0-8.284-6.716-15-15-15s-15 6.716-15 15v120.003c-.002 24.812-20.187 44.997-45 44.997h-122c-24.813 0-44.998-20.185-45-44.997 0-.003 0-120.003 0-120.003 0-8.284-6.716-15-15-15s-15 6.716-15 15v83.787l-4.394-4.394c-5.854-5.855-15.357-5.857-21.213 0l-12.838 12.838-22.325-66.974c-1.645-4.932-5.725-8.661-10.784-9.855-5.057-1.195-10.376.316-14.053 3.992l-4.393 4.393v-53.787c0-119.046 93.351-216.778 211-224.492v30.062c-20.995 1.595-41.404 6.546-60.851 14.785-7.628 3.232-11.191 12.035-7.96 19.663s12.033 11.192 19.663 7.96c15.723-6.661 32.199-10.771 49.147-12.296v30.164c-12.812 1.423-25.447 4.664-37.445 9.745-7.629 3.23-11.194 12.033-7.964 19.662 3.23 7.628 12.036 11.195 19.661 7.963 8.276-3.504 16.942-5.883 25.748-7.148v13.932c0 8.284 6.716 15 15 15s15-6.716 15-15v-13.931c8.806 1.264 17.472 3.643 25.748 7.148 7.643 3.237 16.437-.35 19.661-7.963 3.23-7.629-.335-16.431-7.964-19.662-11.999-5.081-24.634-8.323-37.445-9.745v-30.164c16.948 1.525 33.424 5.635 49.147 12.296 7.658 3.245 16.444-.363 19.663-7.96 3.231-7.628-.332-16.431-7.96-19.663-19.445-8.24-39.854-13.191-60.849-14.786v-30.062c117.649 7.714 211 105.446 211 224.492z" fill="url(#SVGID_1_)"/></g></g></g></svg>