<?xml version="1.0" encoding="UTF-8" standalone="no"?>
<!-- Created with Inkscape (http://www.inkscape.org/) -->

<svg
   xmlns:dc="http://purl.org/dc/elements/1.1/"
   xmlns:cc="http://creativecommons.org/ns#"
   xmlns:rdf="http://www.w3.org/1999/02/22-rdf-syntax-ns#"
   xmlns:svg="http://www.w3.org/2000/svg"
   xmlns="http://www.w3.org/2000/svg"
   xmlns:sodipodi="http://sodipodi.sourceforge.net/DTD/sodipodi-0.dtd"
   xmlns:inkscape="http://www.inkscape.org/namespaces/inkscape"
   width="139.46666mm"
   height="139.46667mm"
   viewBox="0 0 139.46666 139.46667"
   version="1.1"
   id="svg8"
   inkscape:version="0.92.2 (5c3e80d, 2017-08-06)"
   sodipodi:docname="drawing.svg">
  <defs
     id="defs2" />
  <sodipodi:namedview
     id="base"
     pagecolor="#ffffff"
     bordercolor="#666666"
     borderopacity="1.0"
     inkscape:pageopacity="0.0"
     inkscape:pageshadow="2"
     inkscape:zoom="0.35"
     inkscape:cx="-382.15523"
     inkscape:cy="357.84477"
     inkscape:document-units="mm"
     inkscape:current-layer="g3727"
     showgrid="false"
     fit-margin-top="2"
     fit-margin-left="2"
     fit-margin-right="2"
     fit-margin-bottom="2"
     inkscape:window-width="2736"
     inkscape:window-height="1790"
     inkscape:window-x="-11"
     inkscape:window-y="-11"
     inkscape:window-maximized="1" />
  <metadata
     id="metadata5">
    <rdf:RDF>
      <cc:Work
         rdf:about="">
        <dc:format>image/svg+xml</dc:format>
        <dc:type
           rdf:resource="http://purl.org/dc/dcmitype/StillImage" />
        <dc:title></dc:title>
      </cc:Work>
    </rdf:RDF>
  </metadata>
  <g
     inkscape:label="Layer 1"
     inkscape:groupmode="layer"
     id="layer1"
     transform="translate(-36.100001,-104.04643)">
    <g
       id="g3727"
       transform="matrix(0.26458333,0,0,0.26458333,38.100001,106.04643)">
      <path
         id="path3699"
         class=""
         data-original="#1A6FB0"
         d="M 496,288 H 16 c -8.835938,0 -16,7.16406 -16,16 0,49.80859 23.40625,128 112,128 h 304 c 94.91016,0 96,-122.12109 96,-128 0,-8.83594 -7.16406,-16 -16,-16 z m 0,0"
         inkscape:connector-curvature="0"
         style="fill:#1a6fb0" />
      <path
         id="path3701"
         class=""
         data-original="#FF9811"
         d="m 48,160 h 112 c 8.83594,0 16,7.16406 16,16 v 96 c 0,8.83594 -7.16406,16 -16,16 H 48 c -8.835938,0 -16,-7.16406 -16,-16 v -96 c 0,-8.83594 7.164062,-16 16,-16 z m 0,0"
         inkscape:connector-curvature="0"
         style="fill:#ff9811" />
      <path
         id="path3703"
         class=""
         data-original="#CC7400"
         d="M 112,224 H 96 c -8.835938,0 -16,-7.16406 -16,-16 0,-8.83594 7.164062,-16 16,-16 h 16 c 8.83594,0 16,7.16406 16,16 0,8.83594 -7.16406,16 -16,16 z m 0,0"
         inkscape:connector-curvature="0"
         style="fill:#cc7400" />
      <path
         id="path3705"
         class=""
         data-original="#FFDA44"
         d="m 192,160 h 112 c 8.83594,0 16,7.16406 16,16 v 96 c 0,8.83594 -7.16406,16 -16,16 H 192 c -8.83594,0 -16,-7.16406 -16,-16 v -96 c 0,-8.83594 7.16406,-16 16,-16 z m 0,0"
         inkscape:connector-curvature="0"
         style="fill:#ffda44" />
      <path
         id="path3707"
         class=""
         data-original="#CC7400"
         d="m 256,224 h -16 c -8.83594,0 -16,-7.16406 -16,-16 0,-8.83594 7.16406,-16 16,-16 h 16 c 8.83594,0 16,7.16406 16,16 0,8.83594 -7.16406,16 -16,16 z m 0,0"
         inkscape:connector-curvature="0"
         style="fill:#cc7400" />
      <path
         id="path3709"
         class=""
         data-original="#FFDA44"
         d="m 48,32 h 112 c 8.83594,0 16,7.164062 16,16 v 96 c 0,8.83594 -7.16406,16 -16,16 H 48 c -8.835938,0 -16,-7.16406 -16,-16 V 48 c 0,-8.835938 7.164062,-16 16,-16 z m 0,0"
         inkscape:connector-curvature="0"
         style="fill:#ffda44" />
      <path
         id="path3711"
         class=""
         data-original="#CC7400"
         d="M 112,96 H 96 C 87.164062,96 80,88.835938 80,80 80,71.164062 87.164062,64 96,64 h 16 c 8.83594,0 16,7.164062 16,16 0,8.835938 -7.16406,16 -16,16 z m 0,0"
         inkscape:connector-curvature="0"
         style="fill:#cc7400" />
      <path
         id="path3717"
         class=""
         data-original="#1A6FB0"
         d="m 496,512 c -14.54297,0.0117 -28.65625,-4.94141 -40,-14.03906 -23.38281,18.71875 -56.61719,18.71875 -80,0 -23.38281,18.71875 -56.61719,18.71875 -80,0 -23.38281,18.71875 -56.61719,18.71875 -80,0 -23.38281,18.71875 -56.61719,18.71875 -80,0 -23.38281,18.71875 -56.617188,18.71875 -80,0 C 44.65625,507.05859 30.542969,512.01172 16,512 7.164062,512 0,504.83594 0,496 c 0,-8.83594 7.164062,-16 16,-16 10.730469,-0.004 20.746094,-5.38672 26.671875,-14.33594 2.964844,-4.46484 7.96875,-7.14844 13.328125,-7.14844 5.359375,0 10.363281,2.6836 13.328125,7.14844 5.929687,8.94141 15.941406,14.32031 26.671875,14.32031 10.73047,0 20.74219,-5.3789 26.67188,-14.32031 2.96484,-4.46484 7.96874,-7.14844 13.32812,-7.14844 5.35937,0 10.36328,2.6836 13.32812,7.14844 5.92969,8.94141 15.94141,14.32031 26.67188,14.32031 10.73047,0 20.74219,-5.3789 26.67187,-14.32031 2.96485,-4.46484 7.96875,-7.14844 13.32813,-7.14844 5.35937,0 10.36328,2.6836 13.32812,7.14844 5.92969,8.94141 15.94141,14.32031 26.67188,14.32031 10.73047,0 20.74219,-5.3789 26.67187,-14.32031 2.96485,-4.46484 7.96875,-7.14844 13.32813,-7.14844 5.35937,0 10.36328,2.6836 13.32812,7.14844 5.92969,8.94141 15.94141,14.32031 26.67188,14.32031 10.73047,0 20.74219,-5.3789 26.67187,-14.32031 2.96485,-4.46484 7.96875,-7.14844 13.32813,-7.14844 5.35937,0 10.36328,2.6836 13.32812,7.14844 5.92969,8.94141 15.94141,14.32031 26.67188,14.32031 10.73047,0 20.74219,-5.3789 26.67187,-14.32031 2.96485,-4.46484 7.96875,-7.14844 13.32813,-7.14844 5.35937,0 10.36328,2.6836 13.32812,7.14844 5.92579,8.94922 15.94141,14.33203 26.67188,14.33594 8.83594,0 16,7.16406 16,16 0,8.83594 -7.16406,16 -16,16 z m 0,0"
         inkscape:connector-curvature="0"
         style="fill:#1a6fb0" />
      <g
         id="g3725"
         style="fill:#ffda44">
        <path
           id="path3719"
           style="fill:#000000"
           class="active-path"
           data-original="#000000"
           d="m 304,352 c 0,-8.83594 -7.16406,-16 -16,-16 H 3.078125 c 2.0625,10.98828 5.324219,21.71875 9.722656,32 H 288 c 8.83594,0 16,-7.16406 16,-16 z m 0,0"
           inkscape:connector-curvature="0" />
        <path
           id="path3721"
           style="fill:#000000"
           class="active-path"
           data-original="#000000"
           d="m 384,336 c -8.83594,0 -16,7.16406 -16,16 0,8.83594 7.16406,16 16,16 h 116.39062 c 3.78907,-10.39063 6.63282,-21.10156 8.50391,-32 z m 0,0"
           inkscape:connector-curvature="0" />
        <path
           id="path3723"
           style="fill:#000000"
           class="active-path"
           data-original="#000000"
           d="m 336,368 c -6.46484,0.004 -12.29688,-3.88281 -14.78125,-9.84766 -2.48828,-5.96875 -1.13672,-12.84765 3.42187,-17.43359 6.35157,-6 16.28516,-6 22.64063,0 4.54687,4.57422 5.90234,11.43359 3.4375,17.39453 C 348.25391,364.07422 342.44922,367.97266 336,368 Z m 0,0"
           inkscape:connector-curvature="0" />
      </g>
    </g>
  </g>
</svg>
