<?xml version="1.0" encoding="iso-8859-1"?>
<!-- Generator: Adobe Illustrator 19.0.0, SVG Export Plug-In . SVG Version: 6.00 Build 0)  -->
<svg version="1.1" id="Capa_1" xmlns="http://www.w3.org/2000/svg" xmlns:xlink="http://www.w3.org/1999/xlink" x="0px" y="0px"
	 viewBox="0 0 512.004 512.004" style="enable-background:new 0 0 512.004 512.004;" xml:space="preserve">
<path style="fill:#EBBA16;" d="M359.87,132.523l-78.438,78.438l-48.273,48.273c-6.665,6.665-17.468,6.665-24.132,0
	c-6.665-6.665-6.665-17.468,0-24.132l90.513-90.513c6.665-6.665,6.665-17.468,0-24.132s-17.468-6.665-24.132,0L172.811,223.036
	L34.033,361.813c-33.323,33.323-33.323,87.356,0,120.678s87.356,33.323,120.678,0l229.291-229.291l12.066-12.066
	c6.665-6.665,6.665-17.468,0-24.132c-6.665-6.665-17.468-6.665-24.132,0l-24.132,24.132c-6.665,6.665-17.468,6.665-24.132,0
	s-6.665-17.468,0-24.132l60.331-60.348c6.665-6.665,6.665-17.468,0-24.132C377.338,125.858,366.534,125.858,359.87,132.523z"/>
<path style="fill:#DC691D;" d="M153.602,371.456c-2.185,0-4.369-0.836-6.033-2.5c-3.337-3.337-3.337-8.73,0-12.066l34.133-34.133
	c3.337-3.337,8.73-3.337,12.066,0c3.337,3.337,3.337,8.73,0,12.066l-34.133,34.133C157.971,370.62,155.787,371.456,153.602,371.456z
	"/>
<path style="fill:#ED8A19;" d="M145.069,320.256c-2.185,0-4.369-0.836-6.033-2.5c-3.337-3.337-3.337-8.73,0-12.066l34.133-34.133
	c3.337-3.337,8.73-3.337,12.066,0s3.337,8.73,0,12.066l-34.133,34.133C149.438,319.42,147.253,320.256,145.069,320.256z"/>
<path style="fill:#C5411E;" d="M179.202,405.589c-2.185,0-4.369-0.836-6.033-2.5c-3.337-3.337-3.337-8.73,0-12.066l76.8-76.8
	c3.337-3.337,8.73-3.337,12.066,0c3.337,3.337,3.337,8.73,0,12.066l-76.8,76.8C183.571,404.753,181.387,405.589,179.202,405.589z"/>
<path style="fill:#DC691D;" d="M281.602,303.189c-2.185,0-4.369-0.836-6.033-2.5c-3.337-3.337-3.337-8.73,0-12.066l17.067-17.067
	c3.337-3.337,8.73-3.337,12.066,0c3.337,3.337,3.337,8.73,0,12.066l-17.067,17.067C285.971,302.353,283.787,303.189,281.602,303.189
	z"/>
<circle style="fill:#DD352E;" cx="93.869" cy="422.656" r="51.2"/>
<path style="fill:#ED8A19;" d="M290.135,448.256c-2.185,0-4.369-0.836-6.033-2.5c-3.337-3.337-3.337-8.73,0-12.066l76.8-76.8
	c3.337-3.337,8.73-3.337,12.066,0c3.337,3.337,3.337,8.73,0,12.066l-76.8,76.8C294.505,447.42,292.32,448.256,290.135,448.256z"/>
<path style="fill:#DD352E;" d="M392.535,345.856c-2.185,0-4.369-0.836-6.033-2.5c-3.337-3.337-3.337-8.73,0-12.066l17.067-17.067
	c3.337-3.337,8.73-3.337,12.066,0c3.337,3.337,3.337,8.73,0,12.066l-17.067,17.067C396.905,345.02,394.72,345.856,392.535,345.856z"
	/>
<path style="fill:#ED8A19;" d="M418.135,405.589c-2.185,0-4.369-0.836-6.033-2.5c-3.337-3.337-3.337-8.73,0-12.066l76.8-76.8
	c3.337-3.337,8.73-3.337,12.066,0c3.337,3.337,3.337,8.73,0,12.066l-76.8,76.8C422.505,404.753,420.32,405.589,418.135,405.589z"/>
<path style="fill:#C5411E;" d="M375.469,448.256c-2.185,0-4.369-0.836-6.033-2.5c-3.337-3.337-3.337-8.73,0-12.066l17.067-17.067
	c3.337-3.337,8.73-3.337,12.066,0c3.337,3.337,3.337,8.73,0,12.066l-17.067,17.067C379.838,447.42,377.653,448.256,375.469,448.256z
	"/>
<path style="fill:#DD352E;" d="M136.535,166.656c-2.185,0-4.369-0.836-6.033-2.5c-3.337-3.337-3.337-8.73,0-12.066l76.8-76.8
	c3.337-3.337,8.73-3.337,12.066,0c3.337,3.337,3.337,8.73,0,12.066l-76.8,76.8C140.905,165.82,138.72,166.656,136.535,166.656z"/>
<path style="fill:#ED8A19;" d="M93.869,209.323c-2.185,0-4.369-0.836-6.033-2.5c-3.337-3.337-3.337-8.73,0-12.066l17.067-17.067
	c3.337-3.337,8.73-3.337,12.066,0c3.337,3.337,3.337,8.73,0,12.066l-17.067,17.067C98.238,208.486,96.053,209.323,93.869,209.323z"
	/>
<path style="fill:#C5411E;" d="M8.535,209.323c-2.185,0-4.369-0.836-6.033-2.5c-3.337-3.337-3.337-8.73,0-12.066l76.8-76.8
	c3.337-3.337,8.73-3.337,12.066,0s3.337,8.73,0,12.066l-76.8,76.8C12.905,208.486,10.72,209.323,8.535,209.323z"/>
<g>
	<path style="fill:#DC691D;" d="M110.935,106.923c-2.185,0-4.369-0.836-6.033-2.5c-3.337-3.337-3.337-8.73,0-12.066l17.067-17.067
		c3.337-3.337,8.73-3.337,12.066,0c3.337,3.337,3.337,8.73,0,12.066l-17.067,17.067C115.305,106.086,113.12,106.923,110.935,106.923
		z"/>
	<path style="fill:#DC691D;" d="M409.602,115.456c-2.185,0-4.369-0.836-6.033-2.5c-3.337-3.337-3.337-8.73,0-12.066l25.6-25.6
		c3.337-3.337,8.73-3.337,12.066,0s3.337,8.73,0,12.066l-25.6,25.6C413.971,114.62,411.787,115.456,409.602,115.456z"/>
	<path style="fill:#DC691D;" d="M460.802,64.256c-2.185,0-4.369-0.836-6.033-2.5c-3.337-3.337-3.337-8.73,0-12.066l42.667-42.667
		c3.337-3.337,8.73-3.337,12.066,0s3.337,8.73,0,12.066l-42.667,42.667C465.171,63.42,462.987,64.256,460.802,64.256z"/>
</g>
<path style="fill:#C5411E;" d="M443.736,175.189c-2.185,0-4.369-0.836-6.033-2.5c-3.337-3.337-3.337-8.73,0-12.066l59.733-59.733
	c3.337-3.337,8.73-3.337,12.066,0c3.337,3.337,3.337,8.73,0,12.066l-59.733,59.733C448.105,174.353,445.92,175.189,443.736,175.189z
	"/>
<path style="fill:#ED8A19;" d="M341.335,81.323c-2.185,0-4.369-0.836-6.033-2.5c-3.337-3.337-3.337-8.73,0-12.066l59.733-59.733
	c3.337-3.337,8.73-3.337,12.066,0s3.337,8.73,0,12.066l-59.733,59.733C345.705,80.486,343.52,81.323,341.335,81.323z"/>
<path style="fill:#B02721;" d="M76.802,431.189c-4.71,0-8.533-3.823-8.533-8.533c0-14.114,11.486-25.6,25.6-25.6
	c4.71,0,8.533,3.823,8.533,8.533s-3.823,8.533-8.533,8.533c-4.702,0-8.533,3.831-8.533,8.533
	C85.335,427.366,81.513,431.189,76.802,431.189z"/>
<g>
</g>
<g>
</g>
<g>
</g>
<g>
</g>
<g>
</g>
<g>
</g>
<g>
</g>
<g>
</g>
<g>
</g>
<g>
</g>
<g>
</g>
<g>
</g>
<g>
</g>
<g>
</g>
<g>
</g>
</svg>
