<svg id="Capa_1" enable-background="new 0 0 512 512" height="512" viewBox="0 0 512 512" width="512" xmlns="http://www.w3.org/2000/svg"><g><g><path d="m152.252 100.574c-24.161-46.539-34.344-94.732 0-100.189 34.631-5.503 43.401 50.095 43.401 50.095h.028s8.77-55.597 43.401-50.095c34.344 5.457 24.161 53.651 0 100.189l-43.415 25.661z" fill="#845c47"/><path d="m204.843 120.821-9.173 5.415-43.418-25.662c-24.163-46.532-34.34-94.732 0-100.19 7.421-1.182 13.649.443 18.854 3.726-16.025 13.238-8.149 55.494 7.896 96.463z" fill="#704d3b"/><path d="m389.914 395.009c0 71.129-38.238 99.37-95.278 110.316-13.519 2.605-28.104 4.229-43.489 5.22-17.579 1.139-36.202 1.455-55.48 1.455-107.279 0-194.247-9.712-194.247-116.991s86.968-256.856 194.247-256.856 194.247 149.577 194.247 256.856z" fill="#845c47"/><path d="m195.659 512c-107.28 0-194.24-9.713-194.24-116.993s86.96-256.847 194.241-256.847c-41.428 0-75.025 149.567-75.025 256.847s33.596 116.993 75.024 116.993z" fill="#704d3b"/><path d="m230.305 100.574h-69.277c-14.172 0-25.661 11.489-25.661 25.661 0 14.172 11.489 25.661 25.661 25.661h69.277c14.172 0 25.661-11.489 25.661-25.661.001-14.172-11.488-25.661-25.661-25.661z" fill="#f4dd45"/><path d="m186.285 144.38c4.645 4.645 11.066 7.514 18.145 7.514h-43.404c-7.091 0-13.5-2.869-18.145-7.514s-7.514-11.066-7.514-18.145c0-14.17 11.489-25.659 25.659-25.659h43.404c-14.17 0-25.659 11.489-25.659 25.659 0 7.079 2.869 13.5 7.514 18.145z" fill="#ffc250"/></g><g><path d="m463.306 431.181-67.314-7.515h-86.879c-16.38 7.515-29.658 20.794-29.658 37.173v21.503c0 16.38 13.278 29.658 29.658 29.658h154.192c16.38 0 29.658-13.278 29.658-29.658v-21.503c.001-16.38-13.277-29.658-29.657-29.658z" fill="#f4dd45"/><path d="m378.375 512h-69.261c-16.375 0-29.658-13.274-29.658-29.658v-21.502c0-16.384 13.283-29.658 29.658-29.658h69.261c-16.384 0-29.658 13.274-29.658 29.658v21.502c0 16.384 13.275 29.658 29.658 29.658z" fill="#ffc250"/><path d="m480.923 350.362h-154.192c-16.38 0-29.658 13.278-29.658 29.658v21.503c0 16.38 13.278 29.658 29.658 29.658h154.192c16.38 0 29.658-13.278 29.658-29.658v-21.503c0-16.38-13.278-29.658-29.658-29.658z" fill="#f4dd45"/><path d="m439.013 269.543h-154.192c-16.38 0-29.658 13.278-29.658 29.658v21.503c0 16.38 13.278 29.658 29.658 29.658l105.401 8.522 48.791-8.522c16.38 0 29.658-13.278 29.658-29.658v-21.503c0-16.38-13.278-29.658-29.658-29.658z" fill="#f4dd45"/><path d="m395.992 431.181h-69.261c-16.375 0-29.658-13.274-29.658-29.658v-21.502c0-16.384 13.283-29.658 29.658-29.658h69.261c-16.384 0-29.658 13.274-29.658 29.658v21.502c0 16.383 13.275 29.658 29.658 29.658z" fill="#ffc250"/><path d="m354.082 350.362h-69.261c-16.375 0-29.658-13.274-29.658-29.658v-21.502c0-16.384 13.283-29.658 29.658-29.658h69.261c-16.384 0-29.658 13.274-29.658 29.658v21.502c0 16.383 13.275 29.658 29.658 29.658z" fill="#ffc250"/><g fill="#e7a52e"><g><path d="m433.955 334.754c-4.26 0-7.714-3.454-7.714-7.714v-34.176c0-4.26 3.454-7.714 7.714-7.714s7.714 3.454 7.714 7.714v34.176c-.001 4.26-3.454 7.714-7.714 7.714z"/><path d="m289.879 321.769c-4.26 0-7.714-3.454-7.714-7.714v-21.187c0-4.26 3.454-7.714 7.714-7.714s7.714 3.454 7.714 7.714v21.187c-.001 4.26-3.454 7.714-7.714 7.714z"/><path d="m325.898 334.754c-4.26 0-7.714-3.454-7.714-7.714v-34.176c0-4.26 3.454-7.714 7.714-7.714s7.714 3.454 7.714 7.714v34.176c0 4.26-3.454 7.714-7.714 7.714z"/><path d="m361.917 334.754c-4.26 0-7.714-3.454-7.714-7.714v-34.176c0-4.26 3.454-7.714 7.714-7.714s7.714 3.454 7.714 7.714v34.176c0 4.26-3.454 7.714-7.714 7.714z"/><path d="m397.936 334.754c-4.26 0-7.714-3.454-7.714-7.714v-34.176c0-4.26 3.454-7.714 7.714-7.714s7.714 3.454 7.714 7.714v34.176c-.001 4.26-3.454 7.714-7.714 7.714z"/></g><g><path d="m475.865 415.573c-4.26 0-7.714-3.454-7.714-7.714v-34.176c0-4.26 3.454-7.714 7.714-7.714s7.714 3.454 7.714 7.714v34.176c0 4.26-3.454 7.714-7.714 7.714z"/><path d="m367.808 415.573c-4.26 0-7.714-3.454-7.714-7.714v-34.176c0-4.26 3.454-7.714 7.714-7.714s7.714 3.454 7.714 7.714v34.176c0 4.26-3.454 7.714-7.714 7.714z"/><path d="m403.827 415.573c-4.26 0-7.714-3.454-7.714-7.714v-34.176c0-4.26 3.454-7.714 7.714-7.714s7.714 3.454 7.714 7.714v34.176c0 4.26-3.454 7.714-7.714 7.714z"/><path d="m439.846 415.573c-4.26 0-7.714-3.454-7.714-7.714v-34.176c0-4.26 3.454-7.714 7.714-7.714s7.714 3.454 7.714 7.714v34.176c0 4.26-3.454 7.714-7.714 7.714z"/></g><g><path d="m458.248 496.392c-4.26 0-7.714-3.454-7.714-7.714v-34.176c0-4.26 3.454-7.714 7.714-7.714s7.714 3.454 7.714 7.714v34.176c0 4.261-3.454 7.714-7.714 7.714z"/><path d="m314.172 496.387c-4.26 0-7.714-3.454-7.714-7.714v-34.171c0-4.26 3.454-7.714 7.714-7.714s7.714 3.454 7.714 7.714v34.171c-.001 4.261-3.454 7.714-7.714 7.714z"/><path d="m350.191 496.392c-4.26 0-7.714-3.454-7.714-7.714v-34.176c0-4.26 3.454-7.714 7.714-7.714s7.714 3.454 7.714 7.714v34.176c0 4.261-3.454 7.714-7.714 7.714z"/><path d="m386.21 496.392c-4.26 0-7.714-3.454-7.714-7.714v-34.176c0-4.26 3.454-7.714 7.714-7.714s7.714 3.454 7.714 7.714v34.176c0 4.261-3.454 7.714-7.714 7.714z"/><path d="m422.229 496.392c-4.26 0-7.714-3.454-7.714-7.714v-34.176c0-4.26 3.454-7.714 7.714-7.714s7.714 3.454 7.714 7.714v34.176c0 4.261-3.454 7.714-7.714 7.714z"/></g></g><circle cx="234.357" cy="405.246" fill="#f4dd45" r="106.754"/><circle cx="234.357" cy="405.246" fill="#ffc250" r="72.086"/><path d="m234.357 485.046c-44.002 0-79.8-35.798-79.8-79.8s35.798-79.8 79.8-79.8 79.8 35.798 79.8 79.8-35.798 79.8-79.8 79.8zm0-144.173c-35.495 0-64.373 28.877-64.373 64.372s28.877 64.373 64.373 64.373 64.373-28.877 64.373-64.373c-.001-35.494-28.878-64.372-64.373-64.372z" fill="#e7a52e"/><path d="m206.775 445.448c8.065 4.345 13.684 5.793 20.603 6.226v3.676c0 2.13.863 4.059 2.259 5.454 1.396 1.396 3.324 2.259 5.454 2.259 4.26 0 7.714-3.453 7.714-7.714v-4.264c14.967-2.92 24.084-13.947 25.604-24.826 1.8-12.879-6.411-23.929-20.918-28.152-1.542-.449-3.114-.916-4.687-1.398v-21.294c4.194 1.017 6.667 2.721 6.849 2.849 3.473 2.467 8.289 1.652 10.756-1.821s1.652-8.288-1.821-10.755c-1.482-1.053-7.13-4.694-15.783-5.997v-3.129c0-4.26-3.453-7.714-7.714-7.714-4.26 0-7.714 3.453-7.714 7.714v3.616c-.606.126-1.218.262-1.838.416-10.386 2.577-18.147 10.543-19.773 20.295-1.394 8.363 2.032 16.329 8.94 20.792 3.283 2.121 7.296 4.069 12.671 6.098v28.432c-4.538-.389-7.956-1.474-13.286-4.346-3.75-2.021-8.429-.618-10.45 3.132-1.655 3.072-1.014 6.765 1.333 9.112.52.52 1.122.973 1.801 1.339zm16.303-56.725c-2.335-1.508-2.315-3.967-2.093-5.297.427-2.561 2.339-5.637 6.393-7.257v14.89c-1.597-.754-3.055-1.532-4.3-2.336zm20.102 24.197c7.034 2.048 10.66 6.132 9.951 11.204-.601 4.301-4.279 8.802-10.326 10.966v-22.28c.128.037.247.073.375.11z" fill="#f4dd45"/></g></g></svg>