<?xml version="1.0" encoding="iso-8859-1"?>
<!-- Generator: Adobe Illustrator 19.0.0, SVG Export Plug-In . SVG Version: 6.00 Build 0)  -->
<svg version="1.1" id="Layer_1" xmlns="http://www.w3.org/2000/svg" xmlns:xlink="http://www.w3.org/1999/xlink" x="0px" y="0px"
	 viewBox="0 0 512 512" style="enable-background:new 0 0 512 512;" xml:space="preserve">
<g>
	<circle style="fill:#BCC987;" cx="133.1" cy="373.311" r="24.828"/>
	<circle style="fill:#BCC987;" cx="256" cy="400.625" r="24.828"/>
	<circle style="fill:#BCC987;" cx="380.145" cy="103.93" r="24.828"/>
</g>
<g>
	<circle style="fill:#D35B38;" cx="380.145" cy="374.556" r="24.828"/>
	<circle style="fill:#D35B38;" cx="254.756" cy="61.715" r="24.828"/>
	<circle style="fill:#D35B38;" cx="131.855" cy="244.21" r="24.828"/>
</g>
<g>
	<path style="fill:#4D3D36;" d="M501.801,466.153H61.144l55.608-61.873c4.883,2.589,10.446,4.062,16.348,4.062
		c13.586,0,25.382-7.781,31.188-19.115l56.818,14.347c1.503,17.938,16.574,32.079,34.895,32.079
		c19.314,0,35.027-15.713,35.027-35.027c0-10.651-4.784-20.201-12.31-26.63l46.335-110.741l32.997,84.143
		c-7.887,6.429-12.936,16.213-12.936,27.157c0,19.314,15.714,35.027,35.028,35.027s35.027-15.713,35.027-35.027
		c0-3.946-0.666-7.738-1.875-11.28l40.475-40.476c3.983-3.983,3.983-10.441,0-14.425c-3.983-3.982-10.441-3.982-14.424,0
		l-38.182,38.182c-5.859-4.411-13.141-7.029-21.023-7.029c-1.082,0-2.151,0.056-3.209,0.153l-40.571-103.457l40.757-97.41
		c0.997,0.086,2.003,0.139,3.022,0.139c16.219,0,29.893-11.081,33.861-26.07h64.21c5.633,0,10.199-4.567,10.199-10.199
		s-4.566-10.199-10.199-10.199h-64.971c-4.753-13.712-17.79-23.588-33.099-23.588c-19.314,0-35.028,15.713-35.028,35.028
		c0,11.011,5.112,20.845,13.081,27.272l-32.53,77.746l-47.52-121.177c7.14-6.417,11.641-15.717,11.641-26.051
		c0-19.315-15.714-35.028-35.028-35.028S219.73,42.399,219.73,61.714c0,8.356,2.946,16.036,7.847,22.063l-84.08,127.394
		c-3.644-1.288-7.561-1.996-11.64-1.996c-4.185,0-8.199,0.74-11.922,2.092l-72.226-95.035V12.062
		c0-5.632-4.566-10.199-10.199-10.199S27.31,6.43,27.31,12.062v100.287H10.199C4.566,112.348,0,116.916,0,122.548
		c0,5.632,4.566,10.199,10.199,10.199h17.112v102.502H10.199C4.566,235.249,0,239.816,0,245.448s4.566,10.199,10.199,10.199h17.112
		v104.986H10.199C4.566,360.633,0,365.2,0,370.832c0,5.632,4.566,10.199,10.199,10.199h17.112v95.321
		c0,5.632,4.566,10.199,10.199,10.199h87.873v13.387c0,5.632,4.566,10.199,10.199,10.199s10.199-4.567,10.199-10.199v-13.387
		h102.502v13.387c0,5.632,4.566,10.199,10.199,10.199s10.199-4.567,10.199-10.199v-13.387h104.984v13.387
		c0,5.632,4.566,10.199,10.199,10.199s10.199-4.567,10.199-10.199v-13.387h107.735c5.633,0,10.199-4.567,10.199-10.199
		C512,470.72,507.434,466.153,501.801,466.153z M394.771,374.556c0,8.066-6.563,14.629-14.629,14.629
		c-8.067,0-14.63-6.563-14.63-14.629c0-8.067,6.563-14.63,14.63-14.63C388.208,359.926,394.771,366.489,394.771,374.556z
		 M380.142,89.297c8.067,0,14.629,6.563,14.629,14.63s-6.563,14.63-14.629,14.63c-8.067,0-14.63-6.563-14.63-14.63
		S372.075,89.297,380.142,89.297z M133.1,387.943c-8.067,0-14.629-6.563-14.629-14.63c0-8.066,6.563-14.629,14.629-14.629
		s14.629,6.563,14.629,14.629C147.728,381.381,141.166,387.943,133.1,387.943z M256,415.254c-8.067,0-14.629-6.563-14.629-14.629
		c0-8.067,6.563-14.63,14.629-14.63c8.066,0,14.629,6.563,14.629,14.63C270.629,408.691,264.067,415.254,256,415.254z
		 M254.759,47.089c8.067,0,14.63,6.563,14.63,14.63s-6.563,14.63-14.63,14.63c-8.067,0-14.629-6.563-14.629-14.63
		S246.692,47.089,254.759,47.089z M146.487,244.207c0,8.067-6.563,14.63-14.63,14.63s-14.629-6.563-14.629-14.63
		c0-8.066,6.563-14.629,14.629-14.629C139.925,229.578,146.487,236.14,146.487,244.207z M103.62,223.514
		c-4.263,5.802-6.789,12.957-6.789,20.692c0,19.315,15.713,35.028,35.027,35.028s35.028-15.713,35.028-35.028
		c0-7.832-2.584-15.071-6.945-20.911l84.539-128.09c3.252,1,6.703,1.541,10.278,1.541c1.65,0,3.272-0.123,4.862-0.345
		l54.735,139.574l-54.336,129.86c-1.32-0.151-2.66-0.238-4.02-0.238c-13.145,0-24.617,7.282-30.607,18.021l-57.53-14.528
		c-2.093-17.328-16.88-30.805-34.764-30.805c-19.314,0-35.027,15.713-35.027,35.027c0,5.995,1.516,11.642,4.182,16.581
		L47.71,450.583V149.948L103.62,223.514z"/>
	<path style="fill:#4D3D36;" d="M474.105,272.375l-8.07,8.07c-3.983,3.984-3.983,10.441,0,14.425
		c1.992,1.991,4.602,2.987,7.212,2.987c2.61,0,5.221-0.996,7.212-2.987l8.07-8.07c3.983-3.984,3.983-10.441,0-14.425
		C484.546,268.392,478.088,268.392,474.105,272.375z"/>
</g>
<g>
</g>
<g>
</g>
<g>
</g>
<g>
</g>
<g>
</g>
<g>
</g>
<g>
</g>
<g>
</g>
<g>
</g>
<g>
</g>
<g>
</g>
<g>
</g>
<g>
</g>
<g>
</g>
<g>
</g>
</svg>
